# File created by Blade
# Date/Time:  Thu Sep 25 19:04:16 2014
# Frame Rate: 120.000 fps
#------------------------------------------------------
:FULLY-SPECIFIED
:DEGREES
961
root 3.524718 30.013205 -9.425581 100.429842 16.427814 30.368292
Spine 31.787333 32.723152 34.389802
Head -65.854417 -9.733465 -8.421159
LeftShoulder -19.981740 30.766652 18.093722
LeftArm -10.619199 39.099321 -74.433570
LeftForeArm 2.265190 0.000000 12.272549
LeftHand -35.829584 -0.000000 -7.958422
LeftHandThumb1 -26.253704 0.000000 33.147579
RightShoulder 4.049428 36.231303 -38.628175
RightArm 18.959973 5.985954 53.676545
RightForeArm -14.238203 -0.000000 15.994136
RightHand -5.384993 0.000000 -63.606177
RightHandThumb1 -24.326973 -0.000000 -32.862282
LeftUpLeg -101.214838 -16.185984 -1.905873
LeftLeg -3.678967 -0.000000 0.000000
LeftFoot 8.011910 4.506373 -25.624150
LeftToeBase 7.943971 -0.000000 -0.000000
RightUpLeg -106.812672 -57.162773 28.746180
RightLeg -3.986993 -0.000000 0.000000
RightFoot 2.816216 -18.182622 21.696978
RightToeBase 4.446566 -0.000000 -0.000000
962
root 3.523360 30.012998 -9.423174 100.558144 16.423481 30.382277
Spine 31.493859 32.808526 34.333566
Head -66.271826 -9.693089 -8.418803
LeftShoulder -19.924564 30.735870 18.063189
LeftArm -10.583731 38.975136 -74.430452
LeftForeArm 2.185892 -0.000000 12.244748
LeftHand -35.767404 -0.000000 -8.081884
LeftHandThumb1 -26.253704 0.000000 33.147579
RightShoulder 4.121711 36.285236 -38.417666
RightArm 18.992673 5.893914 53.654660
RightForeArm -14.391020 0.000000 15.897961
RightHand -5.342728 0.000000 -63.537503
RightHandThumb1 -24.326973 -0.000000 -32.862282
LeftUpLeg -101.348001 -16.211981 -1.912361
LeftLeg -3.640877 -0.000000 0.000000
LeftFoot 8.003910 4.485916 -25.593319
LeftToeBase 7.976673 -0.000000 -0.000000
RightUpLeg -107.008303 -57.127759 28.904263
RightLeg -3.980379 -0.000000 0.000000
RightFoot 2.811456 -18.165721 21.860989
RightToeBase 4.264954 -0.000000 -0.000000
963
root 3.524192 30.012346 -9.421423 100.689022 16.419278 30.408813
Spine 31.176662 32.868420 34.273850
Head -66.770604 -9.573926 -8.418453
LeftShoulder -19.885797 30.674438 18.014105
LeftArm -10.591141 38.777096 -74.450367
LeftForeArm 2.308192 -0.000000 12.191113
LeftHand -35.792917 -0.000000 -8.094566
LeftHandThumb1 -26.253704 0.000000 33.147579
RightShoulder 4.249800 36.306051 -38.199648
RightArm 19.005129 5.865448 53.634029
RightForeArm -14.547126 -0.000000 15.831014
RightHand -5.229505 -0.000000 -63.470803
RightHandThumb1 -24.326973 -0.000000 -32.862282
LeftUpLeg -101.468120 -16.260451 -1.946022
LeftLeg -3.608640 -0.000000 0.000000
LeftFoot 8.011660 4.437501 -25.556355
LeftToeBase 7.934188 -0.000000 -0.000000
RightUpLeg -107.173245 -57.114056 29.029553
RightLeg -3.984032 -0.000000 0.000000
RightFoot 2.797457 -18.172888 21.925349
RightToeBase 4.232273 -0.000000 -0.000000
964
root 3.527015 30.011223 -9.419899 100.831289 16.411691 30.442358
Spine 30.818338 32.941841 34.215391
Head -67.169271 -9.596513 -8.454758
LeftShoulder -19.798743 30.651631 17.986869
LeftArm -10.570507 38.647484 -74.490994
LeftForeArm 2.228781 0.000000 12.087618
LeftHand -35.806058 -0.000000 -7.941629
LeftHandThumb1 -26.253704 0.000000 33.147579
RightShoulder 4.380185 36.285467 -37.946911
RightArm 19.033585 5.815828 53.598250
RightForeArm -14.735059 -0.000000 15.793681
RightHand -5.222687 -0.000000 -63.412636
RightHandThumb1 -24.326973 -0.000000 -32.862282
LeftUpLeg -101.588662 -16.316905 -1.973822
LeftLeg -3.594062 -0.000000 0.000000
LeftFoot 8.048561 4.433081 -25.441575
LeftToeBase 7.823995 -0.000000 -0.000000
RightUpLeg -107.303821 -57.116255 29.110652
RightLeg -3.998563 -0.000000 0.000000
RightFoot 2.762923 -18.212989 22.015618
RightToeBase 4.243889 -0.000000 -0.000000
965
root 3.529667 30.010369 -9.418036 100.968615 16.413830 30.468781
Spine 30.473597 33.022127 34.180062
Head -67.625949 -9.542451 -8.502981
LeftShoulder -19.716016 30.567171 17.979786
LeftArm -10.597068 38.478109 -74.547365
LeftForeArm 2.176853 -0.000000 11.975217
LeftHand -35.803563 -0.000000 -8.006574
LeftHandThumb1 -26.253704 0.000000 33.147579
RightShoulder 4.534021 36.347654 -37.658468
RightArm 18.957187 5.528399 53.422918
RightForeArm -14.768948 -0.000000 15.834436
RightHand -5.326383 -0.000000 -63.348852
RightHandThumb1 -24.326973 -0.000000 -32.862282
LeftUpLeg -101.701439 -16.363442 -1.981545
LeftLeg -3.602236 -0.000000 0.000000
LeftFoot 8.020746 4.362413 -25.570836
LeftToeBase 7.987886 -0.000000 -0.000000
RightUpLeg -107.479815 -57.097310 29.254260
RightLeg -4.000308 -0.000000 0.000000
RightFoot 2.743917 -18.200812 21.972413
RightToeBase 4.357765 -0.000000 -0.000000
